<?xml version="1.0" standalone="no"?>
<!DOCTYPE svg PUBLIC "-//W3C//DTD SVG 20010904//EN"
 "http://www.w3.org/TR/2001/REC-SVG-20010904/DTD/svg10.dtd">
<svg version="1.0" xmlns="http://www.w3.org/2000/svg"
 width="62.000000pt" height="57.000000pt" viewBox="0 0 62.000000 57.000000"
 preserveAspectRatio="xMidYMid meet">
<metadata>
Created by potrace 1.10, written by Peter Selinger 2001-2011
</metadata>
<g transform="translate(0.000000,57.000000) scale(0.100000,-0.100000)"
fill="#000000" stroke="none">
<path d="M373 543 c-28 -5 -72 -49 -79 -80 -4 -12 -4 -39 -2 -58 l4 -35 -63 0
-63 0 0 85 0 85 -40 0 -40 0 0 -124 0 -123 25 5 c14 2 25 11 25 19 0 8 -4 12
-9 9 -10 -7 -18 68 -13 132 4 60 22 42 22 -23 0 -35 5 -59 16 -69 16 -17 23
-18 91 -20 49 -2 59 -8 38 -26 -11 -9 -15 -9 -15 -1 0 7 -5 9 -11 5 -14 -8 8
-24 34 -24 11 0 17 8 17 22 0 20 1 20 18 5 10 -10 24 -17 30 -17 7 0 12 -4 12
-10 0 -5 -6 -10 -13 -10 -8 0 -22 -9 -32 -20 -18 -20 -19 -20 -47 7 l-29 28
11 -29 c13 -35 8 -41 -18 -27 -32 17 -76 13 -100 -9 -23 -21 -32 -14 -10 8 7
7 8 12 4 12 -5 0 -2 7 5 17 13 15 12 15 -8 5 -52 -28 -70 -110 -37 -173 16
-32 66 -59 109 -59 33 0 81 25 89 46 5 14 10 13 30 -9 45 -48 137 -44 186 8
33 35 38 109 10 154 -12 18 -30 35 -41 38 -21 6 -26 23 -6 23 27 0 59 48 65
96 11 98 -60 157 -165 137z m70 -27 c8 3 18 1 22 -5 6 -11 -9 -16 -30 -11 -31
7 -41 6 -52 -3 -7 -5 -13 -6 -13 -2 0 16 35 33 46 24 6 -5 18 -7 27 -3z m41
-32 c10 -4 16 -17 15 -38 -1 -23 -3 -25 -6 -8 -2 12 -8 22 -13 22 -4 0 -10 7
-14 15 -6 17 -4 18 18 9z m-39 -28 c22 -22 23 -28 14 -55 -7 -20 -20 -33 -35
-37 -55 -14 -88 68 -42 100 30 21 35 20 63 -8z m-113 -48 c-4 -16 -2 -19 9
-13 11 7 11 5 -1 -10 -14 -17 -13 -18 2 -12 13 4 15 2 11 -10 -4 -11 -2 -14 5
-9 7 4 12 2 12 -5 0 -7 10 -9 25 -7 15 3 22 1 18 -5 -4 -6 -1 -7 8 -1 8 5 16
9 19 10 23 4 39 19 44 40 5 20 26 35 26 18 0 -11 -24 -49 -46 -73 -26 -28 -29
-37 -14 -46 6 -4 8 -10 5 -14 -2 -5 7 -13 20 -19 16 -7 23 -17 19 -27 -4 -8
-1 -15 6 -15 24 0 -7 -107 -32 -111 -5 -1 -12 -2 -17 -3 -5 0 -13 -4 -17 -8
-4 -5 -12 -8 -18 -8 -6 0 -2 7 8 15 10 8 22 12 26 10 11 -7 30 18 40 54 5 19
5 31 -1 31 -5 0 -9 6 -9 13 0 8 -11 24 -24 37 -19 17 -31 21 -53 16 -15 -4
-36 -8 -45 -9 -12 -1 -14 -5 -7 -13 7 -8 6 -13 -1 -16 -5 -1 -14 -18 -19 -36
-7 -23 -7 -30 1 -26 7 5 9 1 5 -9 -3 -10 -2 -17 4 -17 6 0 7 -5 4 -10 -4 -7
-13 -7 -26 0 -13 7 -19 7 -19 0 0 -5 -5 -10 -11 -10 -5 0 -8 4 -5 9 3 4 -11 6
-32 4 -20 -2 -46 -4 -57 -4 -42 0 -60 68 -28 103 18 20 58 24 68 7 4 -6 19 -7
36 -4 24 5 28 4 23 -9 -4 -11 -19 -16 -50 -16 -42 0 -44 -1 -44 -29 0 -25 4
-29 35 -33 31 -4 33 -2 20 12 -20 22 -19 30 4 30 11 0 26 7 34 15 8 8 18 11
22 7 5 -4 6 3 3 15 -5 19 8 34 33 37 4 1 16 12 26 25 l20 25 -28 23 c-16 14
-37 25 -48 26 -15 1 -17 5 -11 22 5 11 11 28 14 38 8 25 15 21 8 -5z m116
-190 c7 -7 12 -26 12 -43 0 -38 -16 -55 -50 -55 -34 0 -50 17 -50 55 0 38 16
55 50 55 14 0 31 -5 38 -12z"/>
</g>
</svg>
